<svg width="1680" height="711" viewBox="0 0 1680 711" fill="none" xmlns="http://www.w3.org/2000/svg">
<g clip-path="url(#clip0_124_2381)">
<ellipse cx="1069.65" cy="111.742" rx="2.14002" ry="1.98479" fill="white" fill-opacity="0.2"/>
<ellipse cx="697.675" cy="165.512" rx="0.583642" ry="0.541308" fill="white" fill-opacity="0.7"/>
<ellipse cx="805.843" cy="95.1419" rx="0.583642" ry="0.541308" fill="white" fill-opacity="0.7"/>
<ellipse cx="536.59" cy="112.103" rx="0.583642" ry="0.541308" fill="white" fill-opacity="0.7"/>
<ellipse cx="1041.25" cy="134.116" rx="0.583642" ry="0.541308" fill="white" fill-opacity="0.7"/>
<ellipse cx="975.489" cy="314.913" rx="0.583642" ry="0.541308" fill="white" fill-opacity="0.7"/>
<ellipse cx="1075.88" cy="231.912" rx="0.583642" ry="0.541308" fill="white" fill-opacity="0.7"/>
<ellipse cx="1057.59" cy="279.187" rx="0.583642" ry="0.541308" fill="white" fill-opacity="0.7"/>
<ellipse cx="991.442" cy="422.092" rx="0.583642" ry="0.541308" fill="white" fill-opacity="0.7"/>
<ellipse cx="1125.68" cy="349.196" rx="0.583642" ry="0.541308" fill="white" fill-opacity="0.7"/>
<ellipse cx="1040.08" cy="379.87" rx="0.583642" ry="0.541308" fill="white" fill-opacity="0.7"/>
<ellipse cx="1150.97" cy="352.804" rx="0.583642" ry="0.541308" fill="white" fill-opacity="0.7"/>
<ellipse cx="942.805" cy="316.356" rx="0.583642" ry="0.541308" fill="white" fill-opacity="0.7"/>
<ellipse cx="717.908" cy="487.049" rx="0.583642" ry="0.541308" fill="white" fill-opacity="0.7"/>
<ellipse cx="751.759" cy="437.248" rx="0.583642" ry="0.541308" fill="white" fill-opacity="0.7"/>
<ellipse cx="758.374" cy="329.348" rx="0.583642" ry="0.541308" fill="white" fill-opacity="0.7"/>
<ellipse cx="587.172" cy="320.687" rx="0.583642" ry="0.541308" fill="white" fill-opacity="0.7"/>
<ellipse cx="438.927" cy="480.192" rx="0.583642" ry="0.541308" fill="white" fill-opacity="0.7"/>
<ellipse cx="563.437" cy="476.222" rx="0.583642" ry="0.541308" fill="white" fill-opacity="0.7"/>
<ellipse cx="566.939" cy="616.962" rx="0.583642" ry="0.541308" fill="white" fill-opacity="0.7"/>
<ellipse cx="660.322" cy="616.962" rx="0.583642" ry="0.541308" fill="white" fill-opacity="0.7"/>
<ellipse cx="700.398" cy="686.971" rx="0.583642" ry="0.541308" fill="white" fill-opacity="0.7"/>
<ellipse cx="522.971" cy="672.176" rx="0.583642" ry="0.541308" fill="white" fill-opacity="0.7"/>
<ellipse cx="368.501" cy="645.111" rx="0.583642" ry="0.541308" fill="white" fill-opacity="0.7"/>
<ellipse cx="388.734" cy="668.928" rx="0.583642" ry="0.541308" fill="white" fill-opacity="0.7"/>
<ellipse cx="784.443" cy="677.228" rx="0.583642" ry="0.541308" fill="white" fill-opacity="0.7"/>
<ellipse cx="971.598" cy="472.975" rx="0.583642" ry="0.541308" fill="white" fill-opacity="0.7"/>
<ellipse cx="861.095" cy="558.501" rx="0.583642" ry="0.541308" fill="white" fill-opacity="0.7"/>
<ellipse cx="864.208" cy="623.458" rx="0.583642" ry="0.541308" fill="white" fill-opacity="0.7"/>
<ellipse cx="1032.3" cy="560.306" rx="0.583642" ry="0.541308" fill="white" fill-opacity="0.7"/>
<ellipse cx="1167.7" cy="607.941" rx="0.583642" ry="0.541308" fill="white" fill-opacity="0.7"/>
<ellipse cx="1072.37" cy="513.032" rx="0.583642" ry="0.541308" fill="white" fill-opacity="0.7"/>
<ellipse cx="961.87" cy="598.558" rx="0.583642" ry="0.541308" fill="white" fill-opacity="0.7"/>
<ellipse cx="964.983" cy="663.515" rx="0.583642" ry="0.541308" fill="white" fill-opacity="0.7"/>
<ellipse cx="1133.07" cy="600.362" rx="0.583642" ry="0.541308" fill="white" fill-opacity="0.7"/>
<ellipse cx="1268.48" cy="647.997" rx="0.583642" ry="0.541308" fill="white" fill-opacity="0.7"/>
<ellipse cx="1101.17" cy="134.477" rx="0.972737" ry="0.902179" fill="white" fill-opacity="0.7"/>
<ellipse cx="750.203" cy="292.9" rx="0.972737" ry="0.902179" fill="white" fill-opacity="0.7"/>
<ellipse cx="907.008" cy="580.514" rx="0.972737" ry="0.902179" fill="white" fill-opacity="0.7"/>
<ellipse cx="1078.21" cy="582.319" rx="0.972737" ry="0.902179" fill="white" fill-opacity="0.7"/>
<ellipse cx="1122.18" cy="418.483" rx="0.972737" ry="0.902179" fill="white" fill-opacity="0.7"/>
<ellipse cx="1151.36" cy="440.135" rx="0.972737" ry="0.902179" fill="white" fill-opacity="0.7"/>
<ellipse cx="711.877" cy="74.7527" rx="1.55638" ry="1.44349" fill="white" fill-opacity="0.5"/>
<ellipse cx="322.393" cy="340.354" rx="1.55638" ry="1.44349" fill="white" fill-opacity="0.5"/>
<ellipse cx="770.63" cy="554.712" rx="1.55638" ry="1.44349" fill="white" fill-opacity="0.5"/>
<ellipse cx="1044.16" cy="85.9397" rx="1.55638" ry="1.44349" fill="white" fill-opacity="0.2"/>
<ellipse cx="643.396" cy="540.999" rx="1.55638" ry="1.44349" fill="white" fill-opacity="0.2"/>
<ellipse cx="506.046" cy="596.213" rx="1.55638" ry="1.44349" fill="white" fill-opacity="0.2"/>
<ellipse cx="440.289" cy="585.386" rx="1.55638" ry="1.44349" fill="white" fill-opacity="0.2"/>
<ellipse cx="767.517" cy="601.265" rx="1.55638" ry="1.44349" fill="white" fill-opacity="0.2"/>
<ellipse cx="754.872" cy="82.8723" rx="0.972737" ry="0.902179" fill="white" fill-opacity="0.2"/>
<ellipse cx="1129.18" cy="82.5114" rx="0.972737" ry="0.902179" fill="white" fill-opacity="0.2"/>
<ellipse cx="1124.9" cy="260.421" rx="0.972737" ry="0.902179" fill="white" fill-opacity="0.2"/>
<ellipse cx="778.218" cy="240.934" rx="0.972737" ry="0.902179" fill="white" fill-opacity="0.2"/>
<ellipse cx="1050.19" cy="423.896" rx="0.972737" ry="0.902179" fill="white" fill-opacity="0.2"/>
<ellipse cx="420.445" cy="516.099" rx="1.55638" ry="1.44349" fill="white" fill-opacity="0.4"/>
<ellipse cx="747.674" cy="531.977" rx="1.55638" ry="1.44349" fill="white" fill-opacity="0.4"/>
<ellipse cx="950.392" cy="520.068" rx="1.55638" ry="1.44349" fill="white" fill-opacity="0.4"/>
<ellipse cx="839.889" cy="605.595" rx="1.55638" ry="1.44349" fill="white" fill-opacity="0.4"/>
<ellipse cx="1011.09" cy="607.399" rx="1.55638" ry="1.44349" fill="white" fill-opacity="0.4"/>
<ellipse cx="1027.43" cy="673.8" rx="1.55638" ry="1.44349" fill="white" fill-opacity="0.4"/>
<ellipse cx="857.788" cy="169.301" rx="1.55638" ry="1.44349" fill="white" fill-opacity="0.2"/>
<ellipse cx="1269.45" cy="167.858" rx="1.55638" ry="1.44349" fill="white" fill-opacity="0.2"/>
<ellipse cx="1265.17" cy="345.767" rx="1.55638" ry="1.44349" fill="white" fill-opacity="0.2"/>
<ellipse cx="1300.19" cy="345.767" rx="1.55638" ry="1.44349" fill="white" fill-opacity="0.2"/>
<ellipse cx="1339.1" cy="345.767" rx="1.55638" ry="1.44349" fill="white" fill-opacity="0.2"/>
<ellipse cx="815.765" cy="578.53" rx="1.55638" ry="1.44349" fill="white" fill-opacity="0.2"/>
<ellipse cx="986.967" cy="580.334" rx="1.55638" ry="1.44349" fill="white" fill-opacity="0.2"/>
<ellipse cx="1226.65" cy="500.581" rx="1.55638" ry="1.44349" fill="white" fill-opacity="0.2"/>
<ellipse cx="1261.67" cy="500.581" rx="1.55638" ry="1.44349" fill="white" fill-opacity="0.2"/>
<ellipse cx="1362.44" cy="544.608" rx="1.55638" ry="1.44349" fill="white" fill-opacity="0.2"/>
<ellipse cx="1169.65" cy="208.095" rx="0.583642" ry="0.541308" fill="white" fill-opacity="0.7"/>
<ellipse cx="1244.35" cy="246.347" rx="0.583642" ry="0.541308" fill="white" fill-opacity="0.7"/>
<ellipse cx="1279.37" cy="246.347" rx="0.583642" ry="0.541308" fill="white" fill-opacity="0.7"/>
<ellipse cx="1318.28" cy="246.347" rx="0.583642" ry="0.541308" fill="white" fill-opacity="0.7"/>
<ellipse cx="1251.75" cy="229.386" rx="0.583642" ry="0.541308" fill="white" fill-opacity="0.7"/>
<ellipse cx="1286.76" cy="229.386" rx="0.583642" ry="0.541308" fill="white" fill-opacity="0.7"/>
<ellipse cx="1325.67" cy="229.386" rx="0.583642" ry="0.541308" fill="white" fill-opacity="0.7"/>
<ellipse cx="1212.06" cy="228.304" rx="0.583642" ry="0.541308" fill="white" fill-opacity="0.7"/>
<ellipse cx="1175.48" cy="251.76" rx="0.583642" ry="0.541308" fill="white" fill-opacity="0.7"/>
<ellipse cx="850.2" cy="383.839" rx="0.583642" ry="0.541308" fill="white" fill-opacity="0.7"/>
<ellipse cx="826.465" cy="533.24" rx="0.583642" ry="0.541308" fill="white" fill-opacity="0.7"/>
<ellipse cx="814.014" cy="457.457" rx="0.583642" ry="0.541308" fill="white" fill-opacity="0.7"/>
<ellipse cx="1087.94" cy="537.571" rx="0.583642" ry="0.541308" fill="white" fill-opacity="0.7"/>
<ellipse cx="1189.1" cy="601.084" rx="0.583642" ry="0.541308" fill="white" fill-opacity="0.7"/>
<ellipse cx="809.345" cy="196.547" rx="0.583642" ry="0.541308" fill="white" fill-opacity="0.5"/>
<ellipse cx="1195.33" cy="185.36" rx="0.583642" ry="0.541308" fill="white" fill-opacity="0.5"/>
<ellipse cx="1191.05" cy="363.27" rx="0.583642" ry="0.541308" fill="white" fill-opacity="0.5"/>
<ellipse cx="852.146" cy="510.505" rx="0.583642" ry="0.541308" fill="white" fill-opacity="0.5"/>
<ellipse cx="853.313" cy="435.083" rx="0.583642" ry="0.541308" fill="white" fill-opacity="0.5"/>
<ellipse cx="901.95" cy="366.518" rx="0.583642" ry="0.541308" fill="white" fill-opacity="0.5"/>
<ellipse cx="887.553" cy="287.847" rx="0.583642" ry="0.541308" fill="white" fill-opacity="0.5"/>
<ellipse cx="904.673" cy="184.277" rx="0.583642" ry="0.541308" fill="white" fill-opacity="0.5"/>
<ellipse cx="952.143" cy="203.403" rx="0.583642" ry="0.541308" fill="white" fill-opacity="0.5"/>
<ellipse cx="1113.62" cy="522.053" rx="0.583642" ry="0.541308" fill="white" fill-opacity="0.5"/>
<ellipse cx="1214.39" cy="562.11" rx="0.583642" ry="0.541308" fill="white" fill-opacity="0.5"/>
<ellipse cx="754.483" cy="159.377" rx="0.583642" ry="0.541308" fill="white" fill-opacity="0.4"/>
<ellipse cx="1140.46" cy="148.19" rx="0.583642" ry="0.541308" fill="white" fill-opacity="0.4"/>
<ellipse cx="798.451" cy="303.726" rx="0.583642" ry="0.541308" fill="white" fill-opacity="0.4"/>
<ellipse cx="797.283" cy="478.027" rx="0.583642" ry="0.541308" fill="white" fill-opacity="0.4"/>
<ellipse cx="785.61" cy="393.583" rx="0.583642" ry="0.541308" fill="white" fill-opacity="0.4"/>
<ellipse cx="1058.76" cy="484.883" rx="0.583642" ry="0.541308" fill="white" fill-opacity="0.4"/>
<ellipse cx="948.252" cy="570.41" rx="0.583642" ry="0.541308" fill="white" fill-opacity="0.4"/>
<ellipse cx="951.365" cy="635.367" rx="0.583642" ry="0.541308" fill="white" fill-opacity="0.4"/>
<ellipse cx="1119.45" cy="572.214" rx="0.583642" ry="0.541308" fill="white" fill-opacity="0.4"/>
<ellipse cx="1135.8" cy="638.615" rx="0.583642" ry="0.541308" fill="white" fill-opacity="0.4"/>
<ellipse cx="1254.86" cy="619.849" rx="0.583642" ry="0.541308" fill="white" fill-opacity="0.4"/>
<ellipse cx="1146.3" cy="506.536" rx="0.583642" ry="0.541308" fill="white" fill-opacity="0.4"/>
<ellipse cx="1209.72" cy="400.439" rx="0.583642" ry="0.541308" fill="white" fill-opacity="0.4"/>
<ellipse cx="1270.03" cy="417.761" rx="0.583642" ry="0.541308" fill="white" fill-opacity="0.4"/>
<ellipse cx="1305.05" cy="417.761" rx="0.583642" ry="0.541308" fill="white" fill-opacity="0.4"/>
<ellipse cx="1343.96" cy="417.761" rx="0.583642" ry="0.541308" fill="white" fill-opacity="0.4"/>
<ellipse cx="729.581" cy="194.743" rx="0.583642" ry="0.541308" fill="white" fill-opacity="0.4"/>
<ellipse cx="323.366" cy="274.856" rx="0.583642" ry="0.541308" fill="white" fill-opacity="0.4"/>
<ellipse cx="322.198" cy="300.839" rx="0.583642" ry="0.541308" fill="white" fill-opacity="0.4"/>
<ellipse cx="317.529" cy="215.673" rx="0.583642" ry="0.541308" fill="white" fill-opacity="0.4"/>
<ellipse cx="322.587" cy="256.452" rx="0.583642" ry="0.541308" fill="white" fill-opacity="0.4"/>
<ellipse cx="318.696" cy="184.638" rx="0.583642" ry="0.541308" fill="white" fill-opacity="0.4"/>
<ellipse cx="319.475" cy="139.168" rx="0.583642" ry="0.541308" fill="white" fill-opacity="0.4"/>
<ellipse cx="322.587" cy="95.1419" rx="0.583642" ry="0.541308" fill="white" fill-opacity="0.4"/>
<ellipse cx="318.696" cy="79.2636" rx="0.583642" ry="0.541308" fill="white" fill-opacity="0.4"/>
<ellipse cx="352.548" cy="87.2027" rx="0.583642" ry="0.541308" fill="white" fill-opacity="0.4"/>
<ellipse cx="385.621" cy="101.277" rx="0.583642" ry="0.541308" fill="white" fill-opacity="0.4"/>
<ellipse cx="340.875" cy="112.103" rx="0.583642" ry="0.541308" fill="white" fill-opacity="0.4"/>
<ellipse cx="394.181" cy="79.2636" rx="0.583642" ry="0.541308" fill="white" fill-opacity="0.4"/>
<ellipse cx="428.81" cy="98.0289" rx="0.583642" ry="0.541308" fill="white" fill-opacity="0.4"/>
<ellipse cx="469.665" cy="97.6681" rx="0.583642" ry="0.541308" fill="white" fill-opacity="0.4"/>
<ellipse cx="442.429" cy="78.181" rx="0.583642" ry="0.541308" fill="white" fill-opacity="0.4"/>
<ellipse cx="493.011" cy="86.4811" rx="0.583642" ry="0.541308" fill="white" fill-opacity="0.4"/>
<ellipse cx="524.917" cy="78.5419" rx="0.583642" ry="0.541308" fill="white" fill-opacity="0.4"/>
<ellipse cx="568.495" cy="92.2549" rx="0.583642" ry="0.541308" fill="white" fill-opacity="0.4"/>
<ellipse cx="591.841" cy="79.2636" rx="0.583642" ry="0.541308" fill="white" fill-opacity="0.4"/>
<ellipse cx="1082.88" cy="178.142" rx="0.583642" ry="0.541308" fill="white" fill-opacity="0.4"/>
<ellipse cx="508.964" cy="128.703" rx="0.583642" ry="0.541308" fill="white" fill-opacity="0.4"/>
<ellipse cx="412.079" cy="131.229" rx="0.583642" ry="0.541308" fill="white" fill-opacity="0.4"/>
<ellipse cx="446.709" cy="245.626" rx="0.583642" ry="0.541308" fill="white" fill-opacity="0.4"/>
<ellipse cx="665.38" cy="249.234" rx="0.583642" ry="0.541308" fill="white" fill-opacity="0.4"/>
<ellipse cx="696.118" cy="248.152" rx="0.583642" ry="0.541308" fill="white" fill-opacity="0.4"/>
<ellipse cx="626.471" cy="244.904" rx="0.583642" ry="0.541308" fill="white" fill-opacity="0.4"/>
<ellipse cx="630.361" cy="219.462" rx="0.583642" ry="0.360872" fill="white" fill-opacity="0.4"/>
<ellipse cx="652.54" cy="462.87" rx="0.583642" ry="0.541308" fill="white" fill-opacity="0.4"/>
<ellipse cx="463.44" cy="496.431" rx="0.583642" ry="0.541308" fill="white" fill-opacity="0.4"/>
<ellipse cx="529.197" cy="484.883" rx="0.583642" ry="0.541308" fill="white" fill-opacity="0.4"/>
<ellipse cx="461.883" cy="146.386" rx="0.583642" ry="0.541308" fill="white" fill-opacity="0.4"/>
<ellipse cx="478.225" cy="457.457" rx="0.583642" ry="0.541308" fill="white" fill-opacity="0.1"/>
<ellipse cx="470.443" cy="389.252" rx="0.583642" ry="0.541308" fill="white" fill-opacity="0.4"/>
<ellipse cx="427.643" cy="405.492" rx="0.583642" ry="0.541308" fill="white" fill-opacity="0.4"/>
<ellipse cx="716.741" cy="311.304" rx="0.583642" ry="0.541308" fill="white" fill-opacity="0.4"/>
<ellipse cx="694.951" cy="287.126" rx="0.583642" ry="0.541308" fill="white" fill-opacity="0.4"/>
<ellipse cx="635.809" cy="436.166" rx="0.583642" ry="0.541308" fill="white" fill-opacity="0.4"/>
<ellipse cx="642.034" cy="186.082" rx="0.583642" ry="0.541308" fill="white" fill-opacity="0.4"/>
<ellipse cx="618.689" cy="171.647" rx="0.583642" ry="0.541308" fill="white" fill-opacity="0.4"/>
<ellipse cx="677.247" cy="186.082" rx="0.77819" ry="0.541308" fill="white" fill-opacity="0.4"/>
<ellipse cx="790.669" cy="512.31" rx="0.583642" ry="0.541308" fill="white" fill-opacity="0.4"/>
<ellipse cx="837.749" cy="349.556" rx="0.583642" ry="0.541308" fill="white" fill-opacity="0.4"/>
<ellipse cx="321.42" cy="466.479" rx="0.583642" ry="0.541308" fill="white" fill-opacity="0.4"/>
<ellipse cx="338.54" cy="494.988" rx="0.583642" ry="0.541308" fill="white" fill-opacity="0.4"/>
<ellipse cx="343.209" cy="459.983" rx="0.583642" ry="0.541308" fill="white" fill-opacity="0.1"/>
<ellipse cx="323.366" cy="429.309" rx="0.583642" ry="0.541308" fill="white" fill-opacity="0.4"/>
<ellipse cx="739.697" cy="503.288" rx="0.583642" ry="0.541308" fill="white" fill-opacity="0.4"/>
<ellipse cx="787.167" cy="345.587" rx="0.583642" ry="0.541308" fill="white" fill-opacity="0.4"/>
<ellipse cx="994.165" cy="526.023" rx="0.583642" ry="0.541308" fill="white" fill-opacity="0.4"/>
<ellipse cx="883.662" cy="611.549" rx="0.583642" ry="0.541308" fill="white" fill-opacity="0.4"/>
<ellipse cx="886.775" cy="676.506" rx="0.583642" ry="0.541308" fill="white" fill-opacity="0.4"/>
<ellipse cx="1054.86" cy="613.354" rx="0.583642" ry="0.541308" fill="white" fill-opacity="0.4"/>
<ellipse cx="1071.21" cy="679.754" rx="0.583642" ry="0.541308" fill="white" fill-opacity="0.4"/>
<ellipse cx="1190.27" cy="660.989" rx="0.583642" ry="0.541308" fill="white" fill-opacity="0.4"/>
<ellipse cx="973.154" cy="491.74" rx="0.583642" ry="0.541308" fill="white" fill-opacity="0.4"/>
<ellipse cx="863.818" cy="581.958" rx="0.583642" ry="0.541308" fill="white" fill-opacity="0.4"/>
<ellipse cx="866.931" cy="646.915" rx="0.583642" ry="0.541308" fill="white" fill-opacity="0.4"/>
<ellipse cx="1035.02" cy="583.762" rx="0.583642" ry="0.541308" fill="white" fill-opacity="0.4"/>
<ellipse cx="1051.36" cy="650.163" rx="0.583642" ry="0.541308" fill="white" fill-opacity="0.4"/>
<ellipse cx="1170.43" cy="631.397" rx="0.583642" ry="0.541308" fill="white" fill-opacity="0.4"/>
<ellipse cx="1127.62" cy="186.443" rx="0.583642" ry="0.541308" fill="white" fill-opacity="0.4"/>
<ellipse cx="764.599" cy="529.271" rx="0.583642" ry="0.541308" fill="white" fill-opacity="0.4"/>
<ellipse cx="784.443" cy="453.848" rx="0.583642" ry="0.541308" fill="white" fill-opacity="0.4"/>
<ellipse cx="811.68" cy="376.983" rx="0.583642" ry="0.541308" fill="white" fill-opacity="0.4"/>
<ellipse cx="1041.25" cy="526.023" rx="0.583642" ry="0.541308" fill="white" fill-opacity="0.4"/>
<ellipse cx="930.743" cy="611.549" rx="0.583642" ry="0.541308" fill="white" fill-opacity="0.4"/>
<ellipse cx="1101.94" cy="613.354" rx="0.583642" ry="0.541308" fill="white" fill-opacity="0.4"/>
<ellipse cx="1118.29" cy="679.754" rx="0.583642" ry="0.541308" fill="white" fill-opacity="0.4"/>
<ellipse cx="1237.35" cy="660.989" rx="0.583642" ry="0.541308" fill="white" fill-opacity="0.4"/>
<ellipse cx="1146.69" cy="563.193" rx="0.583642" ry="0.541308" fill="white" fill-opacity="0.4"/>
<ellipse cx="808.178" cy="164.429" rx="0.583642" ry="0.541308" fill="white" fill-opacity="0.4"/>
<ellipse cx="1194.16" cy="153.242" rx="0.583642" ry="0.541308" fill="white" fill-opacity="0.4"/>
<ellipse cx="1228.01" cy="315.996" rx="0.583642" ry="0.541308" fill="white" fill-opacity="0.4"/>
<ellipse cx="1263.03" cy="315.996" rx="0.583642" ry="0.541308" fill="white" fill-opacity="0.4"/>
<ellipse cx="1301.94" cy="315.996" rx="0.583642" ry="0.541308" fill="white" fill-opacity="0.4"/>
<ellipse cx="843.196" cy="311.665" rx="0.583642" ry="0.541308" fill="white" fill-opacity="0.4"/>
<ellipse cx="850.978" cy="484.523" rx="0.583642" ry="0.541308" fill="white" fill-opacity="0.4"/>
<ellipse cx="926.074" cy="301.561" rx="0.583642" ry="0.541308" fill="white" fill-opacity="0.4"/>
<ellipse cx="871.989" cy="250.678" rx="0.583642" ry="0.541308" fill="white" fill-opacity="0.4"/>
<ellipse cx="966.54" cy="257.895" rx="0.583642" ry="0.541308" fill="white" fill-opacity="0.4"/>
<ellipse cx="1022.18" cy="479.11" rx="0.583642" ry="0.541308" fill="white" fill-opacity="0.4"/>
<ellipse cx="905.452" cy="556.697" rx="0.583642" ry="0.541308" fill="white" fill-opacity="0.4"/>
<ellipse cx="908.564" cy="621.654" rx="0.583642" ry="0.541308" fill="white" fill-opacity="0.4"/>
<ellipse cx="1076.65" cy="558.501" rx="0.583642" ry="0.541308" fill="white" fill-opacity="0.4"/>
<ellipse cx="1212.06" cy="606.136" rx="0.583642" ry="0.541308" fill="white" fill-opacity="0.4"/>
<ellipse cx="1213.23" cy="529.992" rx="0.583642" ry="0.541308" fill="white" fill-opacity="0.4"/>
<ellipse cx="1253.69" cy="538.653" rx="0.583642" ry="0.541308" fill="white" fill-opacity="0.4"/>
<ellipse cx="1288.71" cy="538.653" rx="0.583642" ry="0.541308" fill="white" fill-opacity="0.4"/>
<ellipse cx="1327.62" cy="538.653" rx="0.583642" ry="0.541308" fill="white" fill-opacity="0.4"/>
<ellipse cx="672.384" cy="87.5636" rx="0.583642" ry="0.541308" fill="white" fill-opacity="0.4"/>
<ellipse cx="1164.59" cy="115.351" rx="0.583642" ry="0.541308" fill="white" fill-opacity="0.4"/>
<ellipse cx="1146.3" cy="302.643" rx="0.583642" ry="0.541308" fill="white" fill-opacity="0.4"/>
<ellipse cx="1153.31" cy="249.956" rx="0.583642" ry="0.541308" fill="white" fill-opacity="0.4"/>
<ellipse cx="813.625" cy="273.773" rx="0.583642" ry="0.541308" fill="white" fill-opacity="0.4"/>
<ellipse cx="821.407" cy="509.062" rx="0.583642" ry="0.541308" fill="white" fill-opacity="0.4"/>
<ellipse cx="823.353" cy="410.905" rx="0.583642" ry="0.541308" fill="white" fill-opacity="0.4"/>
<ellipse cx="861.873" cy="341.978" rx="0.583642" ry="0.541308" fill="white" fill-opacity="0.4"/>
<ellipse cx="1097.66" cy="444.105" rx="0.583642" ry="0.541308" fill="white" fill-opacity="0.4"/>
<ellipse cx="1098.44" cy="496.07" rx="0.583642" ry="0.541308" fill="white" fill-opacity="0.4"/>
<ellipse cx="1183.65" cy="492.101" rx="0.583642" ry="0.541308" fill="white" fill-opacity="0.4"/>
<ellipse cx="1130.74" cy="112.825" rx="0.583642" ry="0.541308" fill="white" fill-opacity="0.4"/>
<ellipse cx="1101.94" cy="293.621" rx="0.583642" ry="0.541308" fill="white" fill-opacity="0.4"/>
<ellipse cx="779.774" cy="271.247" rx="0.583642" ry="0.541308" fill="white" fill-opacity="0.4"/>
<ellipse cx="759.541" cy="485.966" rx="0.583642" ry="0.541308" fill="white" fill-opacity="0.4"/>
<ellipse cx="787.945" cy="423.174" rx="0.583642" ry="0.541308" fill="white" fill-opacity="0.4"/>
<ellipse cx="806.622" cy="333.678" rx="0.583642" ry="0.541308" fill="white" fill-opacity="0.4"/>
<ellipse cx="1140.85" cy="495.349" rx="0.583642" ry="0.541308" fill="white" fill-opacity="0.4"/>
<ellipse cx="1087.16" cy="81.0679" rx="0.583642" ry="0.541308" fill="white" fill-opacity="0.4"/>
<ellipse cx="1082.88" cy="258.978" rx="0.583642" ry="0.541308" fill="white" fill-opacity="0.4"/>
<ellipse cx="736.195" cy="239.491" rx="0.583642" ry="0.541308" fill="white" fill-opacity="0.4"/>
<ellipse cx="537.757" cy="187.164" rx="0.583642" ry="0.541308" fill="white" fill-opacity="0.4"/>
<ellipse cx="454.88" cy="173.812" rx="0.583642" ry="0.541308" fill="white" fill-opacity="0.4"/>
<ellipse cx="340.875" cy="174.173" rx="0.583642" ry="0.541308" fill="white" fill-opacity="0.4"/>
<ellipse cx="379.784" cy="192.216" rx="0.583642" ry="0.541308" fill="white" fill-opacity="0.4"/>
<ellipse cx="377.45" cy="379.148" rx="0.583642" ry="0.541308" fill="white" fill-opacity="0.4"/>
<ellipse cx="322.976" cy="371.931" rx="0.583642" ry="0.541308" fill="white" fill-opacity="0.4"/>
<ellipse cx="345.155" cy="367.961" rx="0.583642" ry="0.541308" fill="white" fill-opacity="0.4"/>
<ellipse cx="401.963" cy="321.769" rx="0.583642" ry="0.541308" fill="white" fill-opacity="0.4"/>
<ellipse cx="452.545" cy="317.8" rx="0.583642" ry="0.541308" fill="white" fill-opacity="0.4"/>
<ellipse cx="492.622" cy="247.791" rx="0.583642" ry="0.541308" fill="white" fill-opacity="0.4"/>
<ellipse cx="477.058" cy="211.343" rx="0.583642" ry="0.541308" fill="white" fill-opacity="0.4"/>
<ellipse cx="493.789" cy="332.596" rx="0.583642" ry="0.541308" fill="white" fill-opacity="0.4"/>
<ellipse cx="514.411" cy="309.861" rx="0.583642" ry="0.541308" fill="white" fill-opacity="0.4"/>
<ellipse cx="631.529" cy="318.522" rx="0.583642" ry="0.541308" fill="white" fill-opacity="0.4"/>
<ellipse cx="675.691" cy="308.778" rx="0.77819" ry="0.541308" fill="white" fill-opacity="0.4"/>
<ellipse cx="596.51" cy="491.018" rx="0.583642" ry="0.541308" fill="white" fill-opacity="0.4"/>
<ellipse cx="598.845" cy="515.918" rx="0.583642" ry="0.541308" fill="white" fill-opacity="0.4"/>
<ellipse cx="638.922" cy="585.928" rx="0.583642" ry="0.541308" fill="white" fill-opacity="0.4"/>
<ellipse cx="461.494" cy="571.132" rx="0.583642" ry="0.541308" fill="white" fill-opacity="0.4"/>
<ellipse cx="395.737" cy="560.306" rx="0.583642" ry="0.541308" fill="white" fill-opacity="0.4"/>
<ellipse cx="722.966" cy="576.184" rx="0.583642" ry="0.541308" fill="white" fill-opacity="0.4"/>
<ellipse cx="561.103" cy="187.164" rx="0.583642" ry="0.541308" fill="white" fill-opacity="0.4"/>
<ellipse cx="581.336" cy="168.399" rx="0.583642" ry="0.541308" fill="white" fill-opacity="0.4"/>
<ellipse cx="509.742" cy="166.955" rx="0.583642" ry="0.541308" fill="white" fill-opacity="0.4"/>
<ellipse cx="370.446" cy="173.09" rx="0.583642" ry="0.541308" fill="white" fill-opacity="0.4"/>
<ellipse cx="404.686" cy="164.068" rx="0.583642" ry="0.541308" fill="white" fill-opacity="0.4"/>
<ellipse cx="361.497" cy="118.959" rx="0.583642" ry="0.541308" fill="white" fill-opacity="0.4"/>
<ellipse cx="400.795" cy="379.148" rx="0.583642" ry="0.541308" fill="white" fill-opacity="0.4"/>
<ellipse cx="528.808" cy="515.918" rx="0.583642" ry="0.541308" fill="white" fill-opacity="0.4"/>
<ellipse cx="622.19" cy="515.918" rx="0.583642" ry="0.541308" fill="white" fill-opacity="0.4"/>
<ellipse cx="662.267" cy="585.928" rx="0.583642" ry="0.541308" fill="white" fill-opacity="0.4"/>
<ellipse cx="484.84" cy="571.132" rx="0.583642" ry="0.541308" fill="white" fill-opacity="0.4"/>
<ellipse cx="419.083" cy="560.306" rx="0.583642" ry="0.541308" fill="white" fill-opacity="0.4"/>
<ellipse cx="457.992" cy="540.818" rx="0.583642" ry="0.541308" fill="white" fill-opacity="0.4"/>
<ellipse cx="746.312" cy="576.184" rx="0.583642" ry="0.541308" fill="white" fill-opacity="0.4"/>
<ellipse cx="701.955" cy="440.496" rx="0.583642" ry="0.541308" fill="white" fill-opacity="0.4"/>
<ellipse cx="366.166" cy="239.13" rx="0.583642" ry="0.541308" fill="white" fill-opacity="0.4"/>
<ellipse cx="422.974" cy="433.64" rx="0.583642" ry="0.541308" fill="white" fill-opacity="0.4"/>
<ellipse cx="547.484" cy="429.67" rx="0.583642" ry="0.541308" fill="white" fill-opacity="0.4"/>
<ellipse cx="550.986" cy="570.41" rx="0.583642" ry="0.541308" fill="white" fill-opacity="0.4"/>
<ellipse cx="644.369" cy="570.41" rx="0.583642" ry="0.541308" fill="white" fill-opacity="0.4"/>
<ellipse cx="684.446" cy="640.419" rx="0.583642" ry="0.541308" fill="white" fill-opacity="0.4"/>
<ellipse cx="507.018" cy="625.623" rx="0.583642" ry="0.541308" fill="white" fill-opacity="0.4"/>
<ellipse cx="441.261" cy="614.797" rx="0.583642" ry="0.541308" fill="white" fill-opacity="0.4"/>
<ellipse cx="352.548" cy="598.558" rx="0.583642" ry="0.541308" fill="white" fill-opacity="0.4"/>
<ellipse cx="324.144" cy="618.767" rx="0.583642" ry="0.541308" fill="white" fill-opacity="0.4"/>
<ellipse cx="768.49" cy="630.676" rx="0.583642" ry="0.541308" fill="white" fill-opacity="0.4"/>
<ellipse cx="790.669" cy="502.205" rx="0.583642" ry="0.541308" fill="white" fill-opacity="0.4"/>
<ellipse cx="681.333" cy="465.757" rx="0.583642" ry="0.541308" fill="white" fill-opacity="0.4"/>
<ellipse cx="559.935" cy="254.286" rx="0.583642" ry="0.541308" fill="white" fill-opacity="0.4"/>
<ellipse cx="366.555" cy="262.226" rx="0.583642" ry="0.541308" fill="white" fill-opacity="0.4"/>
<ellipse cx="515.578" cy="428.587" rx="0.583642" ry="0.541308" fill="white" fill-opacity="0.4"/>
<ellipse cx="527.64" cy="583.041" rx="0.583642" ry="0.541308" fill="white" fill-opacity="0.4"/>
<ellipse cx="621.023" cy="583.041" rx="0.583642" ry="0.541308" fill="white" fill-opacity="0.4"/>
<ellipse cx="661.1" cy="653.05" rx="0.583642" ry="0.541308" fill="white" fill-opacity="0.4"/>
<ellipse cx="483.673" cy="638.254" rx="0.583642" ry="0.541308" fill="white" fill-opacity="0.4"/>
<ellipse cx="417.916" cy="627.428" rx="0.583642" ry="0.541308" fill="white" fill-opacity="0.4"/>
<ellipse cx="745.145" cy="643.306" rx="0.583642" ry="0.541308" fill="white" fill-opacity="0.4"/>
<ellipse cx="688.726" cy="511.588" rx="0.583642" ry="0.541308" fill="white" fill-opacity="0.4"/>
<ellipse cx="689.893" cy="552.727" rx="0.583642" ry="0.541308" fill="white" fill-opacity="0.4"/>
<ellipse cx="670.438" cy="422.814" rx="0.583642" ry="0.541308" fill="white" fill-opacity="0.4"/>
<ellipse cx="380.173" cy="406.214" rx="0.583642" ry="0.541308" fill="white" fill-opacity="0.2"/>
<ellipse cx="504.684" cy="402.244" rx="0.583642" ry="0.541308" fill="white" fill-opacity="0.4"/>
<ellipse cx="508.186" cy="542.984" rx="0.583642" ry="0.541308" fill="white" fill-opacity="0.4"/>
<ellipse cx="601.568" cy="542.984" rx="0.583642" ry="0.541308" fill="white" fill-opacity="0.4"/>
<ellipse cx="641.645" cy="612.993" rx="0.583642" ry="0.541308" fill="white" fill-opacity="0.4"/>
<ellipse cx="464.218" cy="598.197" rx="0.583642" ry="0.541308" fill="white" fill-opacity="0.4"/>
<ellipse cx="398.461" cy="587.371" rx="0.583642" ry="0.541308" fill="white" fill-opacity="0.4"/>
<ellipse cx="725.69" cy="603.249" rx="0.583642" ry="0.541308" fill="white" fill-opacity="0.4"/>
<ellipse cx="356.05" cy="518.084" rx="0.583642" ry="0.541308" fill="white" fill-opacity="0.4"/>
<ellipse cx="320.642" cy="581.236" rx="0.583642" ry="0.541308" fill="white" fill-opacity="0.4"/>
<ellipse cx="344.377" cy="572.936" rx="0.583642" ry="0.541308" fill="white" fill-opacity="0.4"/>
<ellipse cx="362.275" cy="557.419" rx="0.583642" ry="0.541308" fill="white" fill-opacity="0.4"/>
<ellipse cx="330.369" cy="556.336" rx="0.583642" ry="0.541308" fill="white" fill-opacity="0.4"/>
<ellipse cx="336.595" cy="533.24" rx="0.583642" ry="0.541308" fill="white" fill-opacity="0.4"/>
<ellipse cx="315.584" cy="517.001" rx="0.583642" ry="0.541308" fill="white" fill-opacity="0.4"/>
<ellipse cx="1008.17" cy="380.591" rx="0.583642" ry="0.541308" fill="white" fill-opacity="0.4"/>
<ellipse cx="1071.98" cy="376.261" rx="0.583642" ry="0.541308" fill="white" fill-opacity="0.4"/>
<ellipse cx="1113.62" cy="401.522" rx="0.583642" ry="0.541308" fill="white" fill-opacity="0.4"/>
<ellipse cx="1144.36" cy="454.931" rx="0.583642" ry="0.541308" fill="white" fill-opacity="0.4"/>
<ellipse cx="954.867" cy="394.305" rx="0.583642" ry="0.541308" fill="white" fill-opacity="0.4"/>
<ellipse cx="858.371" cy="210.26" rx="0.583642" ry="0.541308" fill="white" fill-opacity="0.7"/>
<ellipse cx="1017.12" cy="221.447" rx="0.583642" ry="0.541308" fill="white" fill-opacity="0.7"/>
<ellipse cx="1024.9" cy="170.203" rx="0.583642" ry="0.541308" fill="white" fill-opacity="0.7"/>
<ellipse cx="1244.35" cy="199.073" rx="0.583642" ry="0.541308" fill="white" fill-opacity="0.7"/>
<ellipse cx="1279.37" cy="199.073" rx="0.583642" ry="0.541308" fill="white" fill-opacity="0.7"/>
<ellipse cx="1318.28" cy="199.073" rx="0.583642" ry="0.541308" fill="white" fill-opacity="0.7"/>
<ellipse cx="1300.77" cy="168.399" rx="0.583642" ry="0.541308" fill="white" fill-opacity="0.7"/>
<ellipse cx="1330.34" cy="151.077" rx="0.583642" ry="0.541308" fill="white" fill-opacity="0.7"/>
<ellipse cx="1240.07" cy="376.983" rx="0.583642" ry="0.541308" fill="white" fill-opacity="0.7"/>
<ellipse cx="1275.09" cy="376.983" rx="0.583642" ry="0.541308" fill="white" fill-opacity="0.7"/>
<ellipse cx="1325.67" cy="384.2" rx="0.583642" ry="0.541308" fill="white" fill-opacity="0.7"/>
<ellipse cx="901.172" cy="524.219" rx="0.583642" ry="0.541308" fill="white" fill-opacity="0.7"/>
<ellipse cx="902.339" cy="448.796" rx="0.583642" ry="0.541308" fill="white" fill-opacity="0.7"/>
<ellipse cx="931.91" cy="440.135" rx="0.583642" ry="0.541308" fill="white" fill-opacity="0.7"/>
<ellipse cx="956.034" cy="361.826" rx="0.583642" ry="0.541308" fill="white" fill-opacity="0.7"/>
<ellipse cx="1162.64" cy="535.767" rx="0.583642" ry="0.541308" fill="white" fill-opacity="0.7"/>
<ellipse cx="1263.42" cy="575.823" rx="0.583642" ry="0.541308" fill="white" fill-opacity="0.7"/>
<ellipse cx="1256.03" cy="124.733" rx="0.583642" ry="0.541308" fill="white" fill-opacity="0.7"/>
<ellipse cx="1291.04" cy="124.733" rx="0.583642" ry="0.541308" fill="white" fill-opacity="0.7"/>
<ellipse cx="1344.35" cy="116.072" rx="0.583642" ry="0.541308" fill="white" fill-opacity="0.7"/>
<ellipse cx="1351.35" cy="218.199" rx="0.583642" ry="0.541308" fill="white" fill-opacity="0.7"/>
<ellipse cx="1251.75" cy="302.643" rx="0.583642" ry="0.541308" fill="white" fill-opacity="0.7"/>
<ellipse cx="1286.76" cy="302.643" rx="0.583642" ry="0.541308" fill="white" fill-opacity="0.7"/>
<ellipse cx="1350.19" cy="280.269" rx="0.583642" ry="0.541308" fill="white" fill-opacity="0.7"/>
<ellipse cx="883.273" cy="493.544" rx="0.583642" ry="0.541308" fill="white" fill-opacity="0.7"/>
<ellipse cx="891.444" cy="407.657" rx="0.583642" ry="0.541308" fill="white" fill-opacity="0.7"/>
<ellipse cx="912.455" cy="345.226" rx="0.583642" ry="0.541308" fill="white" fill-opacity="0.7"/>
<ellipse cx="936.968" cy="252.843" rx="0.583642" ry="0.541308" fill="white" fill-opacity="0.7"/>
<ellipse cx="934.245" cy="160.821" rx="0.583642" ry="0.541308" fill="white" fill-opacity="0.7"/>
<ellipse cx="997.278" cy="266.556" rx="0.583642" ry="0.541308" fill="white" fill-opacity="0.7"/>
<ellipse cx="975.489" cy="184.999" rx="0.583642" ry="0.541308" fill="white" fill-opacity="0.7"/>
<ellipse cx="1174.32" cy="472.253" rx="0.583642" ry="0.541308" fill="white" fill-opacity="0.7"/>
<ellipse cx="1275.09" cy="501.483" rx="0.583642" ry="0.541308" fill="white" fill-opacity="0.7"/>
<ellipse cx="1310.11" cy="501.483" rx="0.583642" ry="0.541308" fill="white" fill-opacity="0.7"/>
<ellipse cx="1307.39" cy="564.275" rx="0.583642" ry="0.541308" fill="white" fill-opacity="0.7"/>
<ellipse cx="1336.96" cy="557.419" rx="0.583642" ry="0.541308" fill="white" fill-opacity="0.7"/>
<ellipse cx="1347.85" cy="585.206" rx="0.583642" ry="0.541308" fill="white" fill-opacity="0.7"/>
<ellipse cx="1345.13" cy="619.128" rx="0.583642" ry="0.541308" fill="white" fill-opacity="0.7"/>
<ellipse cx="1326.45" cy="634.284" rx="0.583642" ry="0.541308" fill="white" fill-opacity="0.7"/>
<ellipse cx="1349.02" cy="501.483" rx="0.583642" ry="0.541308" fill="white" fill-opacity="0.7"/>
<ellipse cx="850.2" cy="80.7071" rx="0.583642" ry="0.541308" fill="white" fill-opacity="0.7"/>
<ellipse cx="905.841" cy="79.6244" rx="0.583642" ry="0.541308" fill="white" fill-opacity="0.7"/>
<ellipse cx="962.259" cy="107.773" rx="0.583642" ry="0.541308" fill="white" fill-opacity="0.7"/>
<ellipse cx="1005.06" cy="110.299" rx="0.583642" ry="0.541308" fill="white" fill-opacity="0.7"/>
<ellipse cx="994.165" cy="81.0679" rx="0.583642" ry="0.541308" fill="white" fill-opacity="0.7"/>
<ellipse cx="1209.33" cy="83.5941" rx="0.583642" ry="0.541308" fill="white" fill-opacity="0.7"/>
<ellipse cx="1263.03" cy="83.5941" rx="0.583642" ry="0.541308" fill="white" fill-opacity="0.7"/>
<ellipse cx="1298.05" cy="83.5941" rx="0.583642" ry="0.541308" fill="white" fill-opacity="0.7"/>
<ellipse cx="1280.54" cy="106.69" rx="0.583642" ry="0.541308" fill="white" fill-opacity="0.7"/>
<ellipse cx="1336.96" cy="83.5941" rx="0.583642" ry="0.541308" fill="white" fill-opacity="0.7"/>
<ellipse cx="1205.05" cy="261.504" rx="0.583642" ry="0.541308" fill="white" fill-opacity="0.7"/>
<ellipse cx="820.629" cy="238.769" rx="0.583642" ry="0.541308" fill="white" fill-opacity="0.7"/>
<ellipse cx="1228.4" cy="460.344" rx="0.583642" ry="0.541308" fill="white" fill-opacity="0.7"/>
<ellipse cx="1263.42" cy="460.344" rx="0.583642" ry="0.541308" fill="white" fill-opacity="0.7"/>
<ellipse cx="1339.68" cy="461.066" rx="0.583642" ry="0.541308" fill="white" fill-opacity="0.7"/>
<ellipse cx="1239.68" cy="418.844" rx="0.583642" ry="0.541308" fill="white" fill-opacity="0.7"/>
<ellipse cx="1274.7" cy="418.844" rx="0.583642" ry="0.541308" fill="white" fill-opacity="0.7"/>
<ellipse cx="1210.89" cy="285.682" rx="0.972737" ry="0.902179" fill="white" fill-opacity="0.5"/>
<ellipse cx="858.955" cy="288.75" rx="1.55638" ry="1.44349" fill="white" fill-opacity="0.3"/>
<g opacity="0.4">
<g filter="url(#filter0_f_124_2381)">
<circle cx="837.805" cy="370.843" r="206.31" transform="rotate(90 837.805 370.843)" fill="#8B81FF" fill-opacity="0.3"/>
</g>
<g filter="url(#filter1_f_124_2381)">
<circle cx="624.128" cy="475.412" r="99.7167" transform="rotate(105 624.128 475.412)" fill="#0066FF" fill-opacity="0.3"/>
</g>
<g filter="url(#filter2_f_124_2381)">
<circle cx="1021.34" cy="497.317" r="73.7999" fill="#5A0DFF" fill-opacity="0.3"/>
</g>
<g filter="url(#filter3_f_124_2381)">
<circle cx="1060.72" cy="250.277" r="93.3072" transform="rotate(105 1060.72 250.277)" fill="#9E00FF" fill-opacity="0.2"/>
</g>
</g>
</g>
<defs>
<filter id="filter0_f_124_2381" x="431.494" y="-35.4677" width="812.621" height="812.621" filterUnits="userSpaceOnUse" color-interpolation-filters="sRGB">
<feFlood flood-opacity="0" result="BackgroundImageFix"/>
<feBlend mode="normal" in="SourceGraphic" in2="BackgroundImageFix" result="shape"/>
<feGaussianBlur stdDeviation="100" result="effect1_foregroundBlur_124_2381"/>
</filter>
<filter id="filter1_f_124_2381" x="324.386" y="175.67" width="599.483" height="599.483" filterUnits="userSpaceOnUse" color-interpolation-filters="sRGB">
<feFlood flood-opacity="0" result="BackgroundImageFix"/>
<feBlend mode="normal" in="SourceGraphic" in2="BackgroundImageFix" result="shape"/>
<feGaussianBlur stdDeviation="100" result="effect1_foregroundBlur_124_2381"/>
</filter>
<filter id="filter2_f_124_2381" x="747.543" y="223.518" width="547.6" height="547.6" filterUnits="userSpaceOnUse" color-interpolation-filters="sRGB">
<feFlood flood-opacity="0" result="BackgroundImageFix"/>
<feBlend mode="normal" in="SourceGraphic" in2="BackgroundImageFix" result="shape"/>
<feGaussianBlur stdDeviation="100" result="effect1_foregroundBlur_124_2381"/>
</filter>
<filter id="filter3_f_124_2381" x="767.392" y="-43.0529" width="586.661" height="586.661" filterUnits="userSpaceOnUse" color-interpolation-filters="sRGB">
<feFlood flood-opacity="0" result="BackgroundImageFix"/>
<feBlend mode="normal" in="SourceGraphic" in2="BackgroundImageFix" result="shape"/>
<feGaussianBlur stdDeviation="100" result="effect1_foregroundBlur_124_2381"/>
</filter>
<clipPath id="clip0_124_2381">
<rect width="1680" height="711" fill="white"/>
</clipPath>
</defs>
</svg>
