<svg width="24" height="19" viewBox="0 0 24 19" fill="none" xmlns="http://www.w3.org/2000/svg">
<path fill-rule="evenodd" clip-rule="evenodd" d="M16.3562 16.6887C16.9726 17.4805 17.7123 18.3765 17.7123 18.3765C22.2534 18.2303 24 15.2095 24 15.2095C24 8.50125 21.0411 3.06412 21.0411 3.06412C18.0822 0.81391 15.2671 0.87664 15.2671 0.87664L14.9794 1.20978C18.4726 2.29314 20.0959 3.85587 20.0959 3.85587C17.9589 2.66825 15.863 2.08503 13.9109 1.85573C12.4314 1.68916 11.0136 1.73069 9.76025 1.89726C9.63696 1.89726 9.53422 1.91803 9.41093 1.93922C8.69175 2.00153 6.94517 2.27237 4.74654 3.25146C3.98632 3.6058 3.53419 3.85587 3.53419 3.85587C3.53419 3.85587 5.23973 2.21007 8.93833 1.12671L8.73285 0.87664C8.73285 0.87664 5.91781 0.81391 2.95885 3.06412C2.95885 3.06412 0 8.50125 0 15.2095C0 15.2095 1.72602 18.2303 6.26709 18.3765C6.26709 18.3765 6.53809 18.0425 6.88758 17.6047C7.12356 17.3092 7.39541 16.9663 7.64383 16.6472C5.03426 15.8554 4.04787 14.1889 4.04787 14.1889C4.04787 14.1889 4.25334 14.3347 4.62321 14.5432C4.6438 14.5639 4.66439 14.5848 4.70546 14.6055C4.76712 14.6471 4.82868 14.6678 4.89035 14.7098C5.40402 15.0014 5.91781 15.2307 6.39041 15.418C7.23289 15.7512 8.23965 16.0847 9.41093 16.3137C10.952 16.6057 12.7603 16.7095 14.7328 16.3348C15.6986 16.1678 16.6849 15.8762 17.7123 15.4388C18.4315 15.168 19.2329 14.7721 20.0753 14.2096C20.0753 14.2096 19.0479 15.9182 16.3562 16.6887ZM8.15751 8.64748C6.98624 8.64748 6.06162 9.68884 6.06162 10.9596C6.06162 12.2307 7.00683 13.2721 8.15751 13.2721C9.32874 13.2721 10.2534 12.2307 10.2534 10.9596C10.2739 9.68884 9.32874 8.64748 8.15751 8.64748ZM15.6575 8.64748C14.4863 8.64748 13.5616 9.68884 13.5616 10.9596C13.5616 12.2307 14.5068 13.2721 15.6575 13.2721C16.8287 13.2721 17.7534 12.2307 17.7534 10.9596C17.7534 9.68884 16.8287 8.64748 15.6575 8.64748Z" fill="white"/>
</svg>
