<svg width="49" height="41" viewBox="0 0 49 41" fill="none" xmlns="http://www.w3.org/2000/svg">
<path fill-rule="evenodd" clip-rule="evenodd" d="M28.4234 0.368008C27.9984 0.556272 27.1292 1.16742 26.4918 1.72603C23.8468 4.0434 23.4087 4.08821 19.8784 2.4044C17.613 1.32401 17.161 1.19807 15.5462 1.19729C12.1346 1.19601 9.58593 2.89939 7.95852 6.26908C6.43103 9.4317 0.564729 27.5205 0.0766863 30.5726C-0.228501 32.481 0.376981 34.1887 1.89751 35.7093C5.22213 39.0339 10.219 38.465 12.1771 34.539C12.5013 33.889 14.6088 28.7309 16.8605 23.0771C20.4931 13.9559 21.0417 12.7442 21.7273 12.3257C22.82 11.6587 23.5834 11.737 24.4513 12.6049C25.6916 13.8452 25.5433 14.5377 22.3168 22.5666C19.1529 30.4392 18.9339 31.3926 20.0239 32.5531C21.3108 33.923 24.2643 33.6868 25.655 32.1029C26.071 31.629 28.6366 26.8498 31.3565 21.4824C34.4854 15.3078 36.5826 11.4632 37.0667 11.0151C37.9318 10.2141 39.106 10.0807 39.7369 10.7114C40.5927 11.5675 40.2268 12.702 36.6487 20.2871C32.5618 28.9506 32.2043 30.0073 32.6143 32.2126C33.4653 36.7871 36.6454 39.3491 42.1632 39.9054C46.7954 40.3723 49.1766 39.1243 48.4272 36.6223C48.0604 35.3982 47.6149 35.1625 44.4551 34.5217C41.5992 33.9423 40.8117 33.5287 40.4184 32.4001C39.6911 30.3135 40.413 27.6626 44.0186 19.1779C45.46 15.786 46.9159 12.2085 47.2536 11.2275C48.3533 8.03402 47.984 5.30587 46.2007 3.45182C44.9862 2.18883 43.7757 1.78578 41.1707 1.7778C39.7836 1.77342 39.0441 1.92485 37.861 2.45565C36.4448 3.09126 36.2856 3.11238 35.5998 2.75568C35.1939 2.54476 34.5722 2.0598 34.2181 1.67864C32.7823 0.132357 30.2475 -0.440933 28.4234 0.368008Z" fill="white"/>
</svg>
