<svg width="21" height="21" viewBox="0 0 21 21" fill="none" xmlns="http://www.w3.org/2000/svg">
<path d="M10.252 2.22263C12.9912 2.22263 13.3156 2.23464 14.3929 2.2827C15.394 2.32675 15.9347 2.49495 16.2951 2.63511C16.7716 2.81933 17.116 3.04359 17.4725 3.4C17.8329 3.76043 18.0531 4.10083 18.2374 4.57738C18.3775 4.93781 18.5457 5.48244 18.5898 6.47961C18.6378 7.56088 18.6498 7.88526 18.6498 10.6205C18.6498 13.3597 18.6378 13.684 18.5898 14.7613C18.5457 15.7625 18.3775 16.3031 18.2374 16.6635C18.0531 17.1401 17.8289 17.4845 17.4725 17.8409C17.112 18.2013 16.7716 18.4216 16.2951 18.6058C15.9347 18.746 15.39 18.9142 14.3929 18.9582C13.3116 19.0063 12.9872 19.0183 10.252 19.0183C7.5128 19.0183 7.18842 19.0063 6.11116 18.9582C5.10998 18.9142 4.56935 18.746 4.20893 18.6058C3.73237 18.4216 3.38797 18.1973 3.03155 17.8409C2.67113 17.4805 2.45087 17.1401 2.26665 16.6635C2.12649 16.3031 1.95829 15.7585 1.91424 14.7613C1.86619 13.68 1.85417 13.3557 1.85417 10.6205C1.85417 7.88125 1.86619 7.55687 1.91424 6.47961C1.95829 5.47844 2.12649 4.93781 2.26665 4.57738C2.45087 4.10083 2.67513 3.75642 3.03155 3.4C3.39197 3.03958 3.73237 2.81933 4.20893 2.63511C4.56935 2.49495 5.11399 2.32675 6.11116 2.2827C7.18842 2.23464 7.5128 2.22263 10.252 2.22263ZM10.252 0.376465C7.46874 0.376465 7.12034 0.388479 6.02706 0.436535C4.93778 0.484591 4.1889 0.660798 3.54014 0.913093C2.86335 1.1774 2.29068 1.52581 1.72202 2.09848C1.14935 2.66715 0.800938 3.23982 0.536628 3.91261C0.284333 4.56537 0.108127 5.31024 0.0600703 6.39952C0.0120141 7.4968 0 7.84521 0 10.6285C0 13.4117 0.0120141 13.7601 0.0600703 14.8534C0.108127 15.9427 0.284333 16.6916 0.536628 17.3403C0.800938 18.0171 1.14935 18.5898 1.72202 19.1585C2.29068 19.7271 2.86335 20.0795 3.53614 20.3398C4.1889 20.5921 4.93378 20.7683 6.02305 20.8164C7.11633 20.8645 7.46474 20.8765 10.248 20.8765C13.0313 20.8765 13.3797 20.8645 14.4729 20.8164C15.5622 20.7683 16.3111 20.5921 16.9599 20.3398C17.6326 20.0795 18.2053 19.7271 18.774 19.1585C19.3426 18.5898 19.6951 18.0171 19.9554 17.3443C20.2077 16.6916 20.3839 15.9467 20.4319 14.8574C20.48 13.7641 20.492 13.4157 20.492 10.6325C20.492 7.84921 20.48 7.50081 20.4319 6.40753C20.3839 5.31825 20.2077 4.56937 19.9554 3.92061C19.7031 3.23982 19.3547 2.66715 18.782 2.09848C18.2133 1.52982 17.6407 1.1774 16.9679 0.917098C16.3151 0.664802 15.5702 0.488596 14.481 0.44054C13.3837 0.388479 13.0353 0.376465 10.252 0.376465Z" fill="white"/>
<path d="M10.252 5.3623C7.3446 5.3623 4.98584 7.72107 4.98584 10.6285C4.98584 13.5359 7.3446 15.8946 10.252 15.8946C13.1594 15.8946 15.5182 13.5359 15.5182 10.6285C15.5182 7.72107 13.1594 5.3623 10.252 5.3623ZM10.252 14.0445C8.3658 14.0445 6.83601 12.5147 6.83601 10.6285C6.83601 8.74226 8.3658 7.21247 10.252 7.21247C12.1382 7.21247 13.668 8.74226 13.668 10.6285C13.668 12.5147 12.1382 14.0445 10.252 14.0445Z" fill="white"/>
<path d="M16.9558 5.154C16.9558 5.8348 16.4032 6.38344 15.7264 6.38344C15.0456 6.38344 14.4969 5.83079 14.4969 5.154C14.4969 4.4732 15.0496 3.92456 15.7264 3.92456C16.4032 3.92456 16.9558 4.47721 16.9558 5.154Z" fill="white"/>
</svg>
